# xmcd CD database file
# Copyright (C) 1993-1998 Ti Kan
#
# Track frame offsets:
#	182
#	14137
#	29012
#	50320
#	65690
#	81690
#	94670
#	106757
#	118745
#	134642
#	141837
#	154447
#	172300
#
# Disc length: 2445 seconds
#
# Revision: 2
# Processed by: cddbd v1.4b41PL1 Copyright (c) Steve Scherf et al.
# Submitted via: xmcd 2.3 PL0
#
DISCID=ca098b0d
DTITLE=Back to the Bible Quartet/A Cappella Praise
DYEAR=1900
DGENRE=
TTITLE0=It is Good to Sing Your Praises
TTITLE1=Satisfied
TTITLE2=He's Been Faithful
TTITLE3=Boundless Love
TTITLE4=O the Deep, Deep Love of Jesus
TTITLE5=Whiter Than Snow
TTITLE6=Everlasting Praise
TTITLE7=Not for Selfish Gain
TTITLE8=Purify Me Lord
TTITLE9=Now Sing We Joyfully Unto God
TTITLE10=Turn Your Life Over to Jesus
TTITLE11=I'll Pray for You
TTITLE12=Let All on Earth Sing Praise
EXTD=
EXTT0=
EXTT1=
EXTT2=
EXTT3=
EXTT4=
EXTT5=
EXTT6=
EXTT7=
EXTT8=
EXTT9=
EXTT10=
EXTT11=
EXTT12=
PLAYORDER=
